<?xml version="1.0" standalone="no"?>
<!DOCTYPE svg PUBLIC "-//W3C//DTD SVG 20010904//EN"
 "http://www.w3.org/TR/2001/REC-SVG-20010904/DTD/svg10.dtd">
<svg version="1.0" xmlns="http://www.w3.org/2000/svg"
 width="500.000000pt" height="500.000000pt" viewBox="0 0 500.000000 500.000000"
 preserveAspectRatio="xMidYMid meet">

<g transform="translate(0.000000,500.000000) scale(0.100000,-0.100000)"
fill="#FFFF33" stroke="none">
<path d="M233 4934 c-22 -10 -14 -62 23 -152 165 -403 561 -865 981 -1149
l112 -76 -28 -56 c-49 -96 -53 -125 -61 -371 -7 -223 -9 -242 -41 -365 -29
-113 -34 -146 -34 -250 0 -116 1 -122 35 -195 19 -41 64 -110 99 -154 l64 -78
-12 -101 c-19 -172 -67 -289 -227 -563 -135 -230 -173 -331 -174 -456 0 -27
-3 -48 -6 -48 -3 0 -23 14 -44 30 -72 57 -139 72 -154 35 -3 -8 -17 -15 -31
-15 -18 0 -29 -8 -38 -27 -6 -15 -20 -36 -30 -45 -23 -25 -22 -43 12 -113 87
-184 389 -559 519 -645 75 -50 142 -52 185 -6 19 20 36 24 118 30 53 3 118 13
143 20 51 15 52 14 58 -34 3 -23 7 -25 43 -22 24 1 54 -5 73 -15 33 -18 34
-18 52 5 22 27 37 28 63 5 18 -17 20 -17 37 5 10 12 20 28 23 35 3 9 9 9 30 0
24 -11 28 -10 42 11 9 13 27 27 40 30 18 5 26 15 31 41 l6 35 139 0 c77 0 139
-3 139 -6 0 -3 -5 -14 -10 -24 -8 -14 -6 -22 6 -32 10 -7 35 -30 56 -52 33
-32 44 -37 68 -33 18 4 32 1 40 -8 7 -8 29 -15 50 -15 21 0 42 -6 49 -13 7 -9
31 -13 67 -12 l57 2 12 47 c7 25 15 49 18 53 4 3 31 -7 59 -22 41 -22 67 -29
110 -30 47 0 58 -3 58 -17 0 -9 12 -26 27 -38 52 -41 129 -12 285 106 99 74
232 211 363 374 149 186 148 184 140 260 -8 81 -21 96 -86 98 -59 1 -86 -8
-146 -48 -24 -17 -45 -30 -46 -30 -1 0 -2 35 -3 78 0 98 -20 162 -100 335 -35
76 -64 140 -64 141 0 2 56 29 125 61 69 32 125 64 125 70 0 7 -32 53 -70 103
-39 50 -70 95 -70 100 0 5 135 73 300 152 207 99 300 148 300 159 0 9 -108
149 -239 311 -147 181 -235 297 -228 301 7 4 202 61 435 128 232 67 434 127
448 133 38 17 50 50 88 225 59 274 115 630 132 847 l7 89 -58 -7 c-248 -29
-725 -212 -1243 -476 l-232 -119 -26 50 c-14 28 -24 52 -22 54 2 1 37 21 78
45 474 272 752 551 979 981 97 184 86 199 -115 164 -330 -58 -734 -295 -1063
-625 -58 -58 -133 -140 -165 -182 l-59 -75 -84 39 c-170 80 -405 118 -600 99
-177 -18 -324 -61 -482 -140 -31 -16 -62 -26 -67 -23 -6 4 -47 64 -91 134
-124 194 -185 270 -343 429 -253 255 -489 407 -750 482 -89 26 -186 40 -207
31z m456 -176 c321 -175 585 -431 828 -801 47 -73 89 -136 93 -140 4 -5 41 9
81 31 317 172 781 187 1097 35 42 -20 80 -37 84 -37 4 -1 30 33 59 74 124 178
445 460 694 609 85 51 290 151 309 151 12 0 -33 -295 -64 -415 -49 -192 -61
-217 -148 -291 -122 -104 -408 -305 -510 -358 -33 -17 -33 -17 -74 15 l-41 33
35 -50 c99 -138 124 -231 143 -524 12 -188 39 -401 61 -471 4 -14 -4 -12 -42
7 -58 29 -105 30 -161 3 -55 -27 -134 -114 -169 -186 -76 -161 12 -332 170
-333 l51 -1 -80 -77 c-93 -90 -225 -180 -348 -237 -47 -22 -86 -44 -87 -48 0
-12 33 0 147 53 117 55 252 141 318 201 25 23 47 40 49 38 2 -2 9 -40 16 -84
26 -170 93 -362 220 -635 113 -244 148 -365 134 -469 -6 -45 -11 -53 -76 -107
-38 -32 -79 -71 -91 -88 -17 -24 -2 -16 63 35 173 134 301 216 320 204 13 -8
-12 -57 -58 -115 -58 -74 -59 -76 -13 -40 45 35 96 97 106 131 8 24 35 25 35
2 0 -24 -30 -71 -106 -171 -35 -45 -60 -82 -54 -82 5 0 41 37 81 82 95 110 93
107 84 78 -15 -48 -231 -314 -361 -444 -168 -169 -341 -263 -384 -211 -9 11
-11 38 -8 88 l5 72 -18 -40 c-10 -22 -19 -47 -19 -56 0 -38 -56 -38 -138 1
l-62 29 35 46 c106 140 263 472 322 685 13 47 26 123 28 170 5 95 6 97 -50
-104 -19 -71 -54 -176 -77 -235 -52 -129 -181 -386 -243 -482 -25 -38 -56 -91
-70 -118 -22 -44 -29 -50 -65 -56 -31 -5 -46 -3 -59 9 -15 14 -23 15 -45 5
-22 -10 -29 -9 -44 4 -10 10 -31 17 -46 17 -20 0 -40 12 -66 39 l-38 39 15 52
c12 43 13 67 4 145 -33 276 9 724 97 1037 11 37 15 65 9 61 -18 -11 -55 -108
-81 -213 -77 -306 -94 -636 -50 -952 l7 -48 -147 0 -146 0 8 93 c4 50 7 227 7
392 0 334 -12 444 -66 610 -26 82 -59 154 -45 100 3 -11 9 -38 15 -60 6 -22
20 -103 31 -180 27 -177 38 -609 21 -860 l-11 -170 -33 -27 c-23 -20 -39 -26
-58 -22 -21 4 -31 -1 -47 -21 -20 -25 -22 -25 -45 -10 -23 15 -26 14 -56 -11
-29 -24 -33 -25 -50 -10 -11 10 -32 15 -56 13 -36 -2 -39 0 -45 30 -4 17 -30
62 -57 100 -178 241 -304 496 -347 703 -8 40 -18 75 -22 78 -4 4 -4 -31 -1
-78 12 -185 122 -430 294 -658 36 -48 67 -92 70 -98 6 -16 -29 -24 -137 -31
l-95 -6 3 55 c2 30 -1 69 -6 88 l-10 35 -1 -41 c-1 -59 -27 -137 -53 -161 -36
-32 -63 -36 -111 -15 -103 46 -455 459 -543 637 -36 74 -20 92 20 21 35 -63
102 -146 117 -146 5 0 -8 26 -29 58 -89 131 -118 222 -72 222 11 0 20 -6 20
-14 0 -40 112 -212 157 -241 16 -11 10 3 -22 49 -59 84 -105 172 -105 202 0
65 129 -11 309 -180 49 -47 52 -48 35 -18 -11 19 -43 56 -72 83 l-52 50 0 63
c0 141 26 212 164 454 153 269 212 421 231 604 l7 67 62 -51 c117 -99 334
-228 379 -228 7 0 -6 11 -28 23 -97 56 -395 276 -395 292 0 2 21 14 46 27 99
49 162 160 151 264 -20 190 -196 334 -344 280 -53 -19 -53 -19 -17 114 23 84
27 121 33 330 6 207 10 243 30 299 30 85 62 148 105 204 50 66 45 70 -14 12
l-50 -49 -33 17 c-95 52 -363 275 -513 429 -96 98 -102 107 -133 193 -71 198
-107 392 -95 513 4 34 9 62 12 62 3 0 39 -19 81 -42z m4051 -748 c0 -11 -11
-108 -25 -217 -47 -372 -129 -789 -162 -826 -24 -26 -8 -21 -502 -168 -239
-71 -436 -131 -438 -133 -2 -2 104 -140 236 -307 133 -167 241 -306 241 -309
0 -3 -133 -72 -296 -155 -239 -122 -294 -153 -290 -167 6 -26 -9 -31 -43 -13
-46 23 -54 20 -47 -21 7 -33 6 -35 -13 -25 -40 22 -50 15 -39 -25 7 -28 7 -39
-4 -45 -9 -6 -17 0 -26 16 -15 30 -72 202 -72 219 0 7 67 58 149 114 83 56
152 106 156 112 3 5 -46 48 -110 96 -63 47 -115 89 -115 93 0 3 10 35 22 71
27 84 30 243 6 345 -27 112 -47 267 -58 455 -6 96 -17 203 -25 238 -8 35 -15
67 -15 71 0 11 463 245 641 324 277 123 559 223 735 261 92 19 94 19 94 -4z
m-1292 -1888 l82 -55 -120 -78 c-134 -87 -160 -102 -166 -97 -2 2 -10 43 -17
91 l-14 88 37 47 c20 26 43 57 49 70 14 27 -3 34 149 -66z"/>
<path d="M2817 3166 c-85 -31 -132 -110 -125 -210 7 -112 82 -186 187 -186 61
0 97 16 138 64 107 121 37 323 -117 341 -27 3 -61 -1 -83 -9z m43 -46 c23 -12
43 -70 34 -96 -23 -63 -86 -83 -129 -39 -69 68 10 181 95 135z"/>
<path d="M1600 3154 c-77 -33 -123 -106 -123 -194 0 -152 138 -243 271 -179
143 70 144 295 2 367 -51 25 -100 28 -150 6z m180 -44 c27 -27 35 -65 20 -101
-23 -54 -84 -66 -125 -24 -51 51 -18 145 51 145 21 0 42 -8 54 -20z"/>
<path d="M2263 2814 c-23 -10 -15 -43 11 -50 31 -7 68 12 64 34 -3 17 -50 27
-75 16z"/>
<path d="M2207 2538 c-80 -41 -157 -48 -221 -19 l-48 21 14 -23 c44 -68 149
-73 271 -13 l72 36 65 -34 c119 -63 193 -66 252 -9 33 32 37 51 6 28 -63 -44
-144 -39 -251 16 -70 35 -86 35 -160 -3z"/>
</g>
</svg>
